<svg width="81" height="23" viewBox="0 0 81 23" fill="none" xmlns="http://www.w3.org/2000/svg">
<g id="Deeto-Wordmark-final 45">
<g id="Vector">
<path d="M34.9676 11.9781C34.9676 7.82717 30.7148 5.75169 27.0946 5.75169C22.5607 5.75169 18.589 9.18697 18.589 14.5546C18.589 19.9222 22.0686 22.9996 28.1491 22.9996C30.047 22.9996 32.5073 22.6776 34.4756 21.4609V16.7016C32.6127 18.0972 30.5742 18.7771 28.4654 18.7771C25.9193 18.7771 24.5792 17.968 23.9233 16.863C24.7957 17.1049 25.8501 17.31 27.0946 17.31C31.1366 17.31 34.9676 16.0217 34.9676 11.9781ZM23.516 12.9744C23.8952 11.1232 25.0238 9.97422 27.0595 9.97422C28.7817 9.97422 30.047 10.833 30.047 11.9066C30.047 12.5507 29.5198 13.4095 26.5674 13.4095C25.578 13.4095 24.5363 13.2145 23.516 12.9744Z" fill="white"/>
<path d="M71.2044 5.75169C66.2135 5.75169 62.5581 9.18697 62.5581 14.3757C62.5581 19.5644 66.2135 22.9996 71.2044 22.9996C76.1953 22.9996 79.8154 19.5644 79.8154 14.3757C79.8154 9.18697 76.1601 5.75169 71.2044 5.75169ZM71.2044 18.3477C68.9549 18.3477 67.6545 16.5585 67.6545 14.3757C67.6545 12.1928 68.9549 10.4036 71.2044 10.4036C73.4538 10.4036 74.7191 12.1928 74.7191 14.3757C74.7191 16.5585 73.4186 18.3477 71.2044 18.3477Z" fill="white"/>
<path d="M52.1897 11.9781C52.1897 7.82717 47.9369 5.75169 44.3167 5.75169C39.7828 5.75169 35.8111 9.18697 35.8111 14.5546C35.8111 19.9222 39.2907 22.9996 45.3712 22.9996C47.2691 22.9996 49.7294 22.6776 51.6977 21.4609V16.7016C49.8349 18.0972 47.7963 18.7771 45.6875 18.7771C43.1414 18.7771 41.8013 17.968 41.1454 16.863C42.0178 17.1049 43.0722 17.31 44.3167 17.31C48.3587 17.31 52.1897 16.0217 52.1897 11.9781ZM40.7381 12.9744C41.1173 11.1232 42.2459 9.97422 44.2816 9.97422C46.0038 9.97422 47.2691 10.833 47.2691 11.9066C47.2691 12.5507 46.7419 13.4095 43.7895 13.4095C42.8002 13.4095 41.7584 13.2145 40.7381 12.9744Z" fill="white"/>
<path d="M58.4108 2.96053V0.3125H53.3144V15.6997C53.3144 19.7433 55.6342 23.0354 59.9573 22.9996C60.6954 22.9996 61.6443 22.9281 62.1715 22.7849V18.2046C61.8201 18.3119 61.4686 18.3477 61.082 18.3477C58.9731 18.3477 58.4108 16.9163 58.4108 15.6281V10.3678H58.4459C58.8326 10.6899 60.1681 10.8688 60.6954 10.8688C61.2577 10.8688 61.7498 10.833 62.1715 10.7615V6.10953C61.8552 6.14531 61.5389 6.14531 61.082 6.14531C59.2192 6.14531 58.4108 4.6066 58.4108 2.96053Z" fill="white"/>
<path d="M8.95871 18.2761C6.70929 18.2761 5.40884 16.5585 5.40884 14.4472C5.40884 12.336 6.70929 10.833 8.95871 10.833H10.1889C10.7864 10.833 12.0868 10.6899 12.4383 10.3321H12.4734V14.4472C12.4734 16.9521 11.2081 18.2761 8.95871 18.2761ZM8.95871 22.9996C13.9496 22.9996 17.5698 19.9222 17.5698 14.4472V0.3125H12.4734V3.17523C12.4734 4.96444 11.9814 6.10953 9.38048 6.10953H8.95871C4.42472 6.10953 0.3125 9.04383 0.3125 14.4472C0.3125 19.8506 3.96781 22.9996 8.95871 22.9996Z" fill="white"/>
</g>
</g>
</svg>
