<svg width="180" height="60" viewBox="0 0 180 60" fill="none" xmlns="http://www.w3.org/2000/svg">
<g id="Logo placeholder 456">
<g id="Vector">
<path d="M10.1747 50.6194C10.1857 50.598 10.1968 50.5748 10.2078 50.5533L37.0494 5.48687C37.956 4.67414 39.1483 4.95458 39.6347 5.77088L54.0211 29.9242L61.2281 17.8225C62.1347 17.0098 63.3288 17.2885 63.8153 18.1065L81.7803 48.2634C81.7932 48.2866 81.8061 48.3098 81.819 48.333C82.0733 48.8117 82.0401 49.3244 81.819 49.7388C81.5002 50.3336 80.7981 50.7266 80.0094 50.5283C79.7957 50.4747 79.5801 50.4229 79.3645 50.3729C78.1593 50.0925 76.9265 49.8674 75.6569 49.6959C72.7932 49.3083 69.8006 49.1994 66.5021 49.3601C60.3067 49.6638 53.929 50.9106 47.7631 52.1163C46.5359 52.3556 45.2994 52.5968 44.0574 52.8325C42.69 53.0915 41.3172 53.3434 39.9388 53.5792C36.1593 54.224 32.3448 54.742 28.5543 54.9278C27.5518 54.976 26.5678 55.001 25.6003 55.001C20.8129 55.001 16.4234 54.3991 12.3233 53.1773C11.9013 53.0522 11.483 52.9201 11.0684 52.7807C10.663 52.645 10.3571 52.3699 10.1784 52.0341C9.94985 51.6072 9.93143 51.082 10.1784 50.6176L10.1747 50.6194ZM47.1311 49.0922C53.413 47.8651 59.9087 46.595 66.3399 46.2807C70.2152 46.0913 73.8325 46.2682 77.2453 46.8183L62.8147 22.5918C62.6489 22.3131 62.2324 22.3131 62.0666 22.5918L46.171 49.2797C46.4916 49.2172 46.8123 49.1547 47.1311 49.0922ZM19.2373 51.5125C22.101 51.9001 25.0954 52.0091 28.3921 51.8483C32.8903 51.6286 37.4861 50.9106 42.0266 50.0728L52.1876 33.0126L38.6341 10.2579C38.4683 9.97923 38.0518 9.97923 37.886 10.2579L13.9542 50.4372C15.6587 50.9106 17.4075 51.2678 19.2373 51.5143V51.5125Z" fill="white"/>
<path d="M38.3835 11.8959L44.9971 22.999C44.8976 23.9082 43.886 24.5638 42.8725 24.0869C42.3915 23.86 42.128 23.3617 42.1243 22.8436C42.1188 22.0434 41.4204 21.4039 40.5819 21.4593C39.819 21.5093 39.2441 22.1542 39.2441 22.8954V23.6457C39.2441 24.3709 38.6913 25.0068 37.9468 25.0782C37.0917 25.1604 36.3639 24.503 36.3639 23.6885V23.6028C36.3639 22.8579 35.7852 22.2024 35.0168 22.1559C34.9781 22.1542 34.9376 22.1524 34.8989 22.1524C34.147 22.1649 33.561 22.7954 33.561 23.5242V24.1994C33.561 24.9192 33.0174 25.5569 32.2785 25.6337C31.4677 25.7177 30.7693 25.1407 30.6882 24.3923L38.1311 11.8959C38.1863 11.803 38.3245 11.803 38.3798 11.8959H38.3835Z" fill="white"/>
<path d="M62.5401 24.2833L69.1538 35.3865C69.0543 36.2957 68.0426 36.9512 67.0291 36.4743C66.5481 36.2475 66.2846 35.7491 66.2809 35.2311C66.2754 34.4309 65.577 33.7914 64.7385 33.8468C63.9756 33.8968 63.4007 34.5416 63.4007 35.2829V36.0331C63.4007 36.7583 62.8479 37.3942 62.1034 37.4657C61.2484 37.5478 60.5205 36.8905 60.5205 36.076V35.9903C60.5205 35.2454 59.9419 34.5899 59.1734 34.5434C59.1347 34.5416 59.0942 34.5398 59.0555 34.5398C58.3037 34.5523 57.7177 35.1829 57.7177 35.9117V36.5869C57.7177 37.3067 57.174 37.9444 56.4351 38.0212C55.6243 38.1051 54.9259 37.5282 54.8448 36.7798L62.2877 24.2833C62.343 24.1905 62.4812 24.1905 62.5365 24.2833H62.5401Z" fill="white"/>
<path d="M153.149 44.5498C150.957 44.5498 149.222 44.1644 147.946 43.3935C146.669 42.6227 145.754 41.5146 145.2 40.0692C144.645 38.6239 144.368 36.9015 144.368 34.9021V24.0258C144.368 22.0023 144.645 20.2799 145.2 18.8586C145.754 17.4373 146.669 16.3533 147.946 15.6066C149.222 14.8357 150.957 14.4503 153.149 14.4503C155.365 14.4503 157.112 14.8357 158.388 15.6066C159.689 16.3533 160.617 17.4373 161.171 18.8586C161.725 20.2799 162.002 22.0023 162.002 24.0258V34.9021C162.002 36.9015 161.725 38.6239 161.171 40.0692C160.617 41.5146 159.689 42.6227 158.388 43.3935C157.112 44.1644 155.365 44.5498 153.149 44.5498ZM153.149 39.9608C153.823 39.9608 154.317 39.7922 154.63 39.4549C154.944 39.1177 155.148 38.6841 155.245 38.1541C155.341 37.6242 155.389 37.0821 155.389 36.5281V22.4359C155.389 21.8577 155.341 21.3157 155.245 20.8098C155.148 20.2799 154.944 19.8463 154.63 19.509C154.317 19.1718 153.823 19.0031 153.149 19.0031C152.523 19.0031 152.053 19.1718 151.74 19.509C151.427 19.8463 151.222 20.2799 151.125 20.8098C151.029 21.3157 150.981 21.8577 150.981 22.4359V36.5281C150.981 37.0821 151.017 37.6242 151.089 38.1541C151.186 38.6841 151.378 39.1177 151.667 39.4549C151.981 39.7922 152.474 39.9608 153.149 39.9608Z" fill="white"/>
<path d="M131.36 44.5498C129.336 44.5498 127.734 44.1283 126.554 43.2851C125.398 42.442 124.566 41.2616 124.061 39.744C123.579 38.2023 123.338 36.4317 123.338 34.4323V24.6039C123.338 22.5322 123.603 20.7376 124.133 19.2199C124.663 17.7023 125.566 16.534 126.843 15.715C128.144 14.8718 129.902 14.4503 132.118 14.4503C134.287 14.4503 135.985 14.8116 137.213 15.5343C138.466 16.257 139.357 17.2567 139.887 18.5334C140.417 19.8101 140.682 21.3037 140.682 23.014V24.893H134.359V22.5081C134.359 21.8818 134.311 21.3037 134.214 20.7737C134.142 20.2437 133.949 19.8222 133.636 19.509C133.347 19.1718 132.865 19.0031 132.191 19.0031C131.492 19.0031 130.986 19.1959 130.673 19.5813C130.36 19.9426 130.155 20.4003 130.059 20.9544C129.987 21.5084 129.95 22.0866 129.95 22.6888V36.239C129.95 36.8894 130.011 37.5037 130.131 38.0819C130.276 38.6359 130.517 39.0936 130.854 39.4549C131.215 39.7922 131.721 39.9608 132.371 39.9608C133.046 39.9608 133.564 39.7802 133.925 39.4188C134.287 39.0575 134.539 38.5877 134.684 38.0096C134.829 37.4314 134.901 36.8172 134.901 36.1668V32.734H132.263V28.94H140.718V44.1162H136.455L136.093 41.6952C135.708 42.5143 135.142 43.2008 134.395 43.7549C133.648 44.2848 132.636 44.5498 131.36 44.5498Z" fill="white"/>
<path d="M110.944 44.5498C108.752 44.5498 107.018 44.1644 105.741 43.3935C104.464 42.6227 103.549 41.5146 102.995 40.0692C102.441 38.6239 102.164 36.9015 102.164 34.9021V24.0258C102.164 22.0023 102.441 20.2799 102.995 18.8586C103.549 17.4373 104.464 16.3533 105.741 15.6066C107.018 14.8357 108.752 14.4503 110.944 14.4503C113.16 14.4503 114.907 14.8357 116.184 15.6066C117.485 16.3533 118.412 17.4373 118.966 18.8586C119.52 20.2799 119.797 22.0023 119.797 24.0258V34.9021C119.797 36.9015 119.52 38.6239 118.966 40.0692C118.412 41.5146 117.485 42.6227 116.184 43.3935C114.907 44.1644 113.16 44.5498 110.944 44.5498ZM110.944 39.9608C111.619 39.9608 112.113 39.7922 112.426 39.4549C112.739 39.1177 112.944 38.6841 113.04 38.1541C113.136 37.6242 113.185 37.0821 113.185 36.5281V22.4359C113.185 21.8577 113.136 21.3157 113.04 20.8098C112.944 20.2799 112.739 19.8463 112.426 19.509C112.113 19.1718 111.619 19.0031 110.944 19.0031C110.318 19.0031 109.848 19.1718 109.535 19.509C109.222 19.8463 109.017 20.2799 108.921 20.8098C108.824 21.3157 108.776 21.8577 108.776 22.4359V36.5281C108.776 37.0821 108.812 37.6242 108.885 38.1541C108.981 38.6841 109.174 39.1177 109.463 39.4549C109.776 39.7922 110.27 39.9608 110.944 39.9608Z" fill="white"/>
<path d="M87.0016 44.1107V14.8422H93.4696V39.7385H100.19V44.1107H87.0016Z" fill="white"/>
</g>
</g>
</svg>
