<svg xmlns="http://www.w3.org/2000/svg" width="20" height="21" viewBox="0 0 20 21" fill="none">
  <g opacity="0.4" clip-path="url(#clip0_1032_31990)">
    <path d="M10.832 10.8932C10.832 11.0037 10.8759 11.1097 10.9541 11.1879C11.0322 11.266 11.1382 11.3099 11.2487 11.3099H18.332C18.7186 11.3092 19.0891 11.1554 19.3625 10.882C19.6358 10.6087 19.7897 10.2381 19.7904 9.85156V8.1849C19.7899 7.79826 19.6361 7.42758 19.3627 7.15419C19.0893 6.88079 18.7187 6.727 18.332 6.72656H11.2487C11.1382 6.72656 11.0322 6.77046 10.9541 6.8486C10.8759 6.92674 10.832 7.03272 10.832 7.14323V10.8932Z" fill="#041527"/>
    <path d="M3.1237 11.3099H9.16536C9.27587 11.3099 9.38185 11.266 9.45999 11.1879C9.53813 11.1097 9.58203 11.0037 9.58203 10.8932V7.14323C9.58203 7.03272 9.53813 6.92674 9.45999 6.8486C9.38185 6.77046 9.27587 6.72656 9.16536 6.72656H1.66536C1.27873 6.727 0.908049 6.88079 0.634654 7.15419C0.361259 7.42758 0.207472 7.79826 0.207031 8.1849V9.85156C0.207692 10.2381 0.36155 10.6087 0.634897 10.882C0.908245 11.1554 1.27879 11.3092 1.66536 11.3099H3.1237Z" fill="#041527"/>
    <path d="M9.58333 12.9714C9.58333 12.8608 9.53943 12.7549 9.46129 12.6767C9.38315 12.5986 9.27717 12.5547 9.16667 12.5547H2.29167C2.18116 12.5547 2.07518 12.5986 1.99704 12.6767C1.9189 12.7549 1.875 12.8608 1.875 12.9714V19.4297C1.87566 19.8163 2.02952 20.1868 2.30287 20.4602C2.57621 20.7335 2.94676 20.8874 3.33333 20.888H9.16667C9.27717 20.888 9.38315 20.8441 9.46129 20.766C9.53943 20.6878 9.58333 20.5819 9.58333 20.4714V12.9714Z" fill="#041527"/>
    <path d="M11.2487 12.5547C11.1382 12.5547 11.0322 12.5986 10.9541 12.6767C10.8759 12.7549 10.832 12.8608 10.832 12.9714V20.4714C10.832 20.5819 10.8759 20.6878 10.9541 20.766C11.0322 20.8441 11.1382 20.888 11.2487 20.888H16.6654C17.0519 20.8874 17.4225 20.7335 17.6958 20.4602C17.9692 20.1868 18.123 19.8163 18.1237 19.4297V12.9714C18.1237 12.8608 18.0798 12.7549 18.0017 12.6767C17.9235 12.5986 17.8175 12.5547 17.707 12.5547H11.2487Z" fill="#041527"/>
    <path d="M10.8672 6.48232C10.9685 6.58329 11.0941 6.65649 11.2318 6.69487C11.3696 6.73325 11.5149 6.73553 11.6538 6.70149C12.6397 6.46065 15.0122 5.82315 15.7372 5.09815C16.1992 4.63546 16.4585 4.00818 16.458 3.3543C16.4576 2.70043 16.1974 2.07352 15.7347 1.61149C15.272 1.14946 14.6447 0.890157 13.9908 0.890626C13.337 0.891094 12.71 1.1513 12.248 1.61399C11.6172 2.24482 11.0155 4.17815 10.6447 5.69732C10.6145 5.83638 10.6191 5.98072 10.6579 6.11761C10.6967 6.25451 10.7686 6.37976 10.8672 6.48232ZM13.4288 2.79232C13.5022 2.7153 13.5902 2.65373 13.6877 2.61123C13.7852 2.56874 13.8903 2.54618 13.9966 2.54488C14.103 2.54358 14.2085 2.56358 14.307 2.60368C14.4056 2.64379 14.4951 2.70319 14.5703 2.7784C14.6455 2.85362 14.7049 2.94311 14.745 3.04163C14.7851 3.14014 14.8051 3.24569 14.8038 3.35204C14.8025 3.4584 14.7799 3.56343 14.7374 3.66093C14.6949 3.75844 14.6334 3.84647 14.5563 3.91982C13.9606 4.26497 13.3201 4.52632 12.653 4.69649C12.8222 4.02889 13.0833 3.38804 13.4288 2.79232Z" fill="#041527"/>
    <path d="M9.76647 5.6934C9.39647 4.17923 8.7948 2.24506 8.16564 1.6134C7.70361 1.15093 7.07679 0.890938 6.42307 0.890625C5.76935 0.890313 5.14228 1.1497 4.6798 1.61173C4.21733 2.07376 3.95734 2.70058 3.95703 3.3543C3.95672 4.00802 4.21611 4.63509 4.67814 5.09756C5.40147 5.82256 7.77397 6.46006 8.76147 6.7009C8.90038 6.73494 9.04572 6.73266 9.18349 6.69428C9.32126 6.6559 9.44684 6.5827 9.54814 6.48173C9.64656 6.37842 9.71797 6.25243 9.75606 6.11491C9.79414 5.9774 9.79772 5.83262 9.76647 5.6934ZM5.8573 3.91923C5.78327 3.84525 5.72453 3.75742 5.68445 3.66074C5.64436 3.56406 5.62371 3.46044 5.62367 3.35578C5.62363 3.25112 5.64421 3.14747 5.68422 3.05077C5.72424 2.95406 5.78291 2.86618 5.85689 2.79215C5.93087 2.71812 6.0187 2.65938 6.11538 2.61929C6.21206 2.5792 6.31568 2.55855 6.42034 2.55851C6.63171 2.55844 6.83446 2.64233 6.98397 2.79173C7.3299 3.38727 7.59103 4.02818 7.7598 4.6959C7.09265 4.5266 6.45233 4.2652 5.8573 3.91923Z" fill="#041527"/>
  </g>
  <defs>
    <clipPath id="clip0_1032_31990">
      <rect width="20" height="20" fill="white" transform="translate(0 0.890625)"/>
    </clipPath>
  </defs>
</svg>
