<svg width="20" height="20" viewBox="0 0 20 20" fill="none" xmlns="http://www.w3.org/2000/svg">
<g id="Icon left">
<g id="Vector">
<path d="M15.0252 5.25906C15.0336 5.2202 15.0336 5.17999 15.0252 5.14113C14.605 4.53466 14.1848 3.95345 13.7563 3.40594C13.7276 3.37334 13.6902 3.34967 13.6485 3.33772C13.6068 3.32578 13.5625 3.32607 13.521 3.33855C13.4796 3.35385 13.4438 3.38136 13.4183 3.41744C13.3928 3.45352 13.3788 3.4965 13.3781 3.54071V19.0479C13.3786 19.0836 13.3881 19.1185 13.4058 19.1494C13.4234 19.1803 13.4486 19.2063 13.479 19.2248C13.5099 19.2418 13.5446 19.2507 13.5798 19.2507C13.615 19.2507 13.6497 19.2418 13.6806 19.2248C14.1357 19.0151 14.5691 18.7612 14.9748 18.4667C15.0004 18.4467 15.0212 18.4212 15.0358 18.392C15.0503 18.3629 15.0582 18.3308 15.0588 18.2983L15.0252 5.25906Z" fill="white"/>
<path d="M12.084 1.51913C12.0841 1.46702 12.0663 1.41647 12.0336 1.37593C11.6218 0.912655 11.2689 0.533608 11.0084 0.255641C10.9239 0.163679 10.8244 0.0867747 10.7143 0.0282126C10.6823 0.00973017 10.6461 0 10.6092 0C10.5723 0 10.5361 0.00973017 10.5042 0.0282126C10.4733 0.0461084 10.4476 0.0719144 10.4299 0.102993C10.4122 0.134071 10.403 0.169308 10.4033 0.205101V19.7892C10.4037 19.8177 10.4099 19.8458 10.4214 19.8719C10.433 19.898 10.4497 19.9214 10.4706 19.9408C10.4919 19.9608 10.517 19.9764 10.5444 19.9865C10.5719 19.9966 10.601 20.0011 10.6302 19.9998C11.0627 19.9693 11.4924 19.9074 11.9159 19.8144C11.9627 19.8049 12.0048 19.7797 12.0354 19.7429C12.0659 19.7062 12.0831 19.6601 12.084 19.6123V1.51913Z" fill="white"/>
<path d="M9.14284 0.331498C9.14408 0.309623 9.13819 0.287936 9.12607 0.269706C9.11394 0.251475 9.09623 0.237687 9.07561 0.230419C9.05847 0.218078 9.0379 0.21144 9.01679 0.21144C8.99568 0.21144 8.97511 0.218078 8.95797 0.230419C7.32772 1.97403 2 7.92928 2 12.4526C1.99809 14.3461 2.70791 16.1708 3.98804 17.5633C5.26817 18.9557 7.02465 19.8136 8.90755 19.9661C8.93754 19.9703 8.96809 19.968 8.9971 19.9593C9.0261 19.9506 9.05289 19.9356 9.07561 19.9156C9.09711 19.8949 9.11417 19.87 9.12573 19.8425C9.13729 19.815 9.14311 19.7854 9.14284 19.7555V0.331498Z" fill="white"/>
<path d="M16.2857 16.5799C16.2846 16.6248 16.2991 16.6686 16.3267 16.7039C16.3543 16.7393 16.3932 16.7639 16.4369 16.7737C16.4779 16.8025 16.5282 16.8151 16.5779 16.8088C16.6276 16.8026 16.6732 16.778 16.7058 16.74C17.5537 15.5003 18.005 14.0313 18 12.5283C17.9264 10.9321 17.4833 9.37483 16.7058 7.97977C16.684 7.93901 16.6493 7.90662 16.6072 7.88759C16.5651 7.86857 16.5179 7.86398 16.473 7.87452C16.428 7.88507 16.3878 7.91017 16.3585 7.94594C16.3292 7.98172 16.3125 8.02617 16.3109 8.07242L16.2857 16.5799Z" fill="white"/>
</g>
</g>
</svg>
